# xmcd CD database file
#
# Track frame offsets:
#	150
#	26447
#	33380
#	57425
#	90865
#	104240
#	146772
#	177932
#	210950
#	242247
#	261085
#
# Disc length: 3888 seconds
#
# Revision: 0
# Processed by: cddbd v1.5.2PL0 Copyright (c) Steve Scherf et al.
# Submitted via: CDex 1.70beta2
#
DISCID=950f2e0b
DTITLE=Nervio - Nude Energy
DYEAR=2005
DGENRE=Jazz
TTITLE0=風にそよぐ
TTITLE1=Improvisation
TTITLE2=Silk
TTITLE3=Trance By Myself
TTITLE4=Life Between Life
TTITLE5=八
TTITLE6=鼓動
TTITLE7=Subways
TTITLE8=Heart Of Flea
TTITLE9=γ-Wave
TTITLE10=12:12
EXTD=YEAR: 2005
EXTT0=
EXTT1=
EXTT2=
EXTT3=
EXTT4=
EXTT5=
EXTT6=
EXTT7=
EXTT8=
EXTT9=
EXTT10=
PLAYORDER=
